<svg xmlns="http://www.w3.org/2000/svg" viewBox="0 0 24 24" fill="none" stroke="currentColor" stroke-width="2" stroke-linecap="round" stroke-linejoin="round" class="lucide lucide-wechat">
  <path d="M9.5 9.5c-.3-.9-1.5-.9-1.8 0L6.5 12c-.1.2.1.4.3.3.2-.1.4-.1.6 0 .2.1.4-.1.3-.3z"/>
  <path d="M13.5 6.5c-.3-.9-1.5-.9-1.8 0L10.5 9c-.1.2.1.4.3.3.2-.1.4-.1.6 0 .2.1.4-.1.3-.3z"/>
  <path d="M15.5 14.5c-.3-.9-1.5-.9-1.8 0L12.5 17c-.1.2.1.4.3.3.2-.1.4-.1.6 0 .2.1.4-.1.3-.3z"/>
  <path d="M18.5 11.5c-.3-.9-1.5-.9-1.8 0L15.5 14c-.1.2.1.4.3.3.2-.1.4-.1.6 0 .2.1.4-.1.3-.3z"/>
  <path d="M12.5 2C6.3 2 1.2 6.1 1.2 11.2c0 2.5 1.2 4.8 3.1 6.5-.1.6-.3 1.1-.5 1.6-.3.6.4 1.1.9.8.7-.4 1.3-.7 1.9-1.1.6.2 1.3.3 2 .4 0-3.9 3.9-7.1 8.8-7.1.3 0 .6 0 .9.1C17.9 6.9 15.5 2 12.5 2z"/>
  <path d="M22.8 17.3c0-3.1-3.1-5.6-7-5.6s-7 2.5-7 5.6c0 3.1 3.1 5.6 7 5.6.8 0 1.6-.1 2.3-.3.5.3 1.1.6 1.7.9.5.3 1.1-.2.9-.7-.2-.5-.3-.9-.4-1.4 1.6-1.2 2.5-2.9 2.5-4.1z"/>
</svg> 