<?xml version="1.0" encoding="UTF-8"?>
<svg width="24px" height="24px" viewBox="0 0 24 24" version="1.1" xmlns="http://www.w3.org/2000/svg">
    <g stroke="none" stroke-width="1" fill="none" fill-rule="evenodd">
        <rect x="0" y="0" width="24" height="24"/>
        <path d="M21.9964,11.2297 L21.9964,12.8648 L18.6223,12.8648 C18.6223,12.8648 18.7145,13.1158 18.7145,13.3595 C18.7145,13.6032 18.6223,13.8541 18.6223,13.8541 L22,13.8541 L22,15.3874 L18.6223,15.3874 C18.6223,15.3874 18.0525,16.8271 16.7202,18.0563 C15.3879,19.2855 13.5919,20 13.5919,20 L13.5919,20 L17.0754,15.3874 L13.5919,15.3874 L13.5919,13.8541 L17.9695,13.8541 C17.9695,13.8541 17.9695,13.6032 17.9695,13.3595 C17.9695,13.1158 17.9695,12.8648 17.9695,12.8648 L13.5919,12.8648 L13.5919,11.2297 L17.9695,11.2297 L17.9695,9.59457 L13.5919,9.59457 L13.5919,8.05932 L17.9695,8.05932 L17.9695,6.42422 L13.5919,6.42422 L13.5919,4.88897 L15.7558,4.88897 C15.7558,4.88897 15.1861,4.16981 14.2466,4 L9.75343,4 C8.81394,4.16981 8.24422,4.88897 8.24422,4.88897 L10.4081,4.88897 L10.4081,6.42422 L6.03057,6.42422 L6.03057,8.05932 L10.4081,8.05932 L10.4081,9.59457 L6.03057,9.59457 L6.03057,11.2297 L10.4081,11.2297 L10.4081,12.8648 L6.03057,12.8648 C6.03057,12.8648 6.03057,13.1158 6.03057,13.3595 C6.03057,13.6032 6.03057,13.8541 6.03057,13.8541 L10.4081,13.8541 L10.4081,15.3874 L6.92456,15.3874 L10.4081,20 C10.4081,20 8.61208,19.2855 7.27983,18.0563 C5.94758,16.8271 5.37786,15.3874 5.37786,15.3874 L2,15.3874 L2,13.8541 L5.37786,13.8541 C5.37786,13.8541 5.28565,13.6032 5.28565,13.3595 C5.28565,13.1158 5.37786,12.8648 5.37786,12.8648 L2,12.8648 L2,11.2297 L5.37786,11.2297 C5.37786,11.2297 5.85537,9.76222 7.27983,8.05932 C8.7043,6.35642 10.4081,5.61121 10.4081,5.61121 C10.4081,5.61121 10.4081,5.61121 10.4081,5.61121 L13.5919,5.61121 C13.5919,5.61121 15.2957,6.35642 16.7202,8.05932 C18.1446,9.76222 18.6223,11.2297 18.6223,11.2297 L21.9964,11.2297 Z" fill="#1677FF"/>
    </g>
</svg> 