<?xml version="1.0" encoding="UTF-8"?>
<svg width="24px" height="24px" viewBox="0 0 24 24" version="1.1" xmlns="http://www.w3.org/2000/svg">
    <g stroke="none" stroke-width="1" fill="none" fill-rule="evenodd">
        <rect x="0" y="0" width="24" height="24"/>
        <path d="M9.82727273,16.4954545 C9.32727273,16.4954545 9.02727273,16.0954545 9.02727273,15.5954545 C9.02727273,15.0954545 9.32727273,14.6954545 9.82727273,14.6954545 C10.3272727,14.6954545 10.6272727,15.0954545 10.6272727,15.5954545 C10.6272727,16.0954545 10.3272727,16.4954545 9.82727273,16.4954545 M13.7272727,16.4954545 C13.2272727,16.4954545 12.9272727,16.0954545 12.9272727,15.5954545 C12.9272727,15.0954545 13.2272727,14.6954545 13.7272727,14.6954545 C14.2272727,14.6954545 14.5272727,15.0954545 14.5272727,15.5954545 C14.5272727,16.0954545 14.2272727,16.4954545 13.7272727,16.4954545 M8.82727273,11.9954545 C8.32727273,11.9954545 8.02727273,11.5954545 8.02727273,11.0954545 C8.02727273,10.5954545 8.32727273,10.1954545 8.82727273,10.1954545 C9.32727273,10.1954545 9.62727273,10.5954545 9.62727273,11.0954545 C9.62727273,11.5954545 9.32727273,11.9954545 8.82727273,11.9954545 M14.7272727,11.9954545 C14.2272727,11.9954545 13.9272727,11.5954545 13.9272727,11.0954545 C13.9272727,10.5954545 14.2272727,10.1954545 14.7272727,10.1954545 C15.2272727,10.1954545 15.5272727,10.5954545 15.5272727,11.0954545 C15.5272727,11.5954545 15.2272727,11.9954545 14.7272727,11.9954545 M21.8181818,12 C21.8181818,17.4272727 17.4272727,21.8181818 12,21.8181818 C6.57272727,21.8181818 2.18181818,17.4272727 2.18181818,12 C2.18181818,6.57272727 6.57272727,2.18181818 12,2.18181818 C17.4272727,2.18181818 21.8181818,6.57272727 21.8181818,12 Z" fill="#07C160"/>
    </g>
</svg> 